<svg width="147" height="42" viewBox="0 0 147 42" fill="none" xmlns="http://www.w3.org/2000/svg">
<path d="M145.764 36.8692C145.764 39.0901 143.898 40.8891 141.59 40.8891H4.99379C2.68687 40.8891 0.814331 39.0901 0.814331 36.8692V4.81155C0.814331 2.59167 2.68687 0.786377 4.99379 0.786377H141.589C143.898 0.786377 145.763 2.59167 145.763 4.81155L145.764 36.8692Z" fill="black"/>
<path d="M141.149 0.834743C143.663 0.834743 145.708 2.79739 145.708 5.20935V36.4659C145.708 38.8778 143.663 40.8405 141.149 40.8405H5.42883C2.91528 40.8405 0.869969 38.8778 0.869969 36.4659V5.20935C0.869969 2.79739 2.91528 0.834743 5.42883 0.834743H141.149ZM141.149 -6.48499e-05H5.42883C2.44433 -6.48499e-05 0 2.34548 0 5.20935V36.4659C0 39.3298 2.44433 41.6753 5.42883 41.6753H141.149C144.134 41.6753 146.578 39.3298 146.578 36.4659V5.20935C146.578 2.34548 144.134 -6.48499e-05 141.149 -6.48499e-05Z" fill="#A6A6A6"/>
<path d="M32.7119 20.6125C32.6805 17.2545 35.5773 15.6209 35.7097 15.5448C34.0691 13.2495 31.5263 12.9359 30.6327 12.9109C28.497 12.6953 26.4254 14.1372 25.3374 14.1372C24.2278 14.1372 22.5524 12.9318 20.7468 12.9672C18.4233 13.0016 16.2496 14.2925 15.0574 16.2971C12.5971 20.3844 14.432 26.3908 16.7892 29.6946C17.9683 31.3127 19.3462 33.1193 21.1496 33.0558C22.914 32.9859 23.5731 31.9764 25.7022 31.9764C27.8119 31.9764 28.4308 33.0558 30.2701 33.0151C32.1636 32.9859 33.3558 31.3898 34.4937 29.7571C35.8563 27.9026 36.4035 26.0762 36.4253 25.9824C36.3807 25.9678 32.7478 24.6373 32.7119 20.6125Z" fill="white"/>
<path d="M29.2375 10.7376C30.1864 9.59878 30.8357 8.0495 30.6555 6.47729C29.282 6.53564 27.5643 7.38894 26.5752 8.50272C25.7001 9.48417 24.9183 11.0928 25.1203 12.6057C26.6631 12.7161 28.2473 11.8586 29.2375 10.7376Z" fill="white"/>
<path d="M53.2568 10.4283C53.2568 11.6546 52.8735 12.5777 52.1081 13.1976C51.3991 13.7696 50.3915 14.0561 49.0864 14.0561C48.4393 14.0561 47.8855 14.029 47.4219 13.9749V7.27451C48.0267 7.18074 48.6781 7.13281 49.3817 7.13281C50.6249 7.13281 51.5619 7.39224 52.1938 7.9111C52.9018 8.49768 53.2568 9.3364 53.2568 10.4283ZM52.057 10.4585C52.057 9.66355 51.8377 9.05405 51.3991 8.62896C50.9604 8.20491 50.3198 7.99237 49.4762 7.99237C49.1179 7.99237 48.8128 8.01529 48.5598 8.06321V13.157C48.6998 13.1778 48.9561 13.1872 49.3285 13.1872C50.1993 13.1872 50.8714 12.9549 51.3448 12.4902C51.8182 12.0255 52.057 11.3483 52.057 10.4585Z" fill="white"/>
<path d="M59.6183 11.4992C59.6183 12.2546 59.3935 12.8735 58.944 13.359C58.4728 13.8581 57.8485 14.1071 57.0689 14.1071C56.3176 14.1071 55.7193 13.8685 55.2731 13.3892C54.8279 12.911 54.6053 12.3077 54.6053 11.5805C54.6053 10.8199 54.8344 10.1958 55.2948 9.71137C55.7551 9.22689 56.374 8.98413 57.1536 8.98413C57.905 8.98413 58.5086 9.22272 58.9658 9.70095C59.4001 10.1656 59.6183 10.7658 59.6183 11.4992ZM58.4381 11.5347C58.4381 11.0814 58.336 10.6928 58.133 10.3688C57.8941 9.97705 57.5543 9.78117 57.1124 9.78117C56.6552 9.78117 56.3078 9.97705 56.0689 10.3688C55.8648 10.6928 55.7638 11.0877 55.7638 11.5545C55.7638 12.0077 55.8659 12.3963 56.0689 12.7203C56.3154 13.1121 56.6585 13.3079 57.1015 13.3079C57.5358 13.3079 57.8767 13.1089 58.1221 12.7099C58.3328 12.3796 58.4381 11.9879 58.4381 11.5347Z" fill="white"/>
<path d="M68.1481 9.08423L66.5466 13.9957H65.5042L64.8408 11.8629C64.6725 11.3305 64.5357 10.8013 64.4293 10.2761H64.4087C64.3099 10.8158 64.1731 11.3441 63.9972 11.8629L63.2925 13.9957H62.2382L60.7323 9.08423H61.9017L62.4804 11.4191C62.6204 11.9713 62.7355 12.4974 62.8278 12.9955H62.8484C62.9331 12.585 63.0732 12.0619 63.2708 11.4295L63.9972 9.08527H64.9244L65.6204 11.3795C65.7887 11.939 65.9255 12.4776 66.0308 12.9965H66.0623C66.1394 12.4912 66.2556 11.9525 66.4097 11.3795L67.0308 9.08527H68.1481V9.08423Z" fill="white"/>
<path d="M74.047 13.9955H72.9091V11.1825C72.9091 10.3156 72.566 9.88219 71.8777 9.88219C71.54 9.88219 71.2675 10.001 71.0557 10.2396C70.8462 10.4781 70.7398 10.7595 70.7398 11.0814V13.9945H69.6019V10.4875C69.6019 10.0562 69.5878 9.58838 69.5607 9.08202H70.5606L70.6138 9.84989H70.6453C70.7778 9.6113 70.9754 9.41438 71.2349 9.25706C71.5433 9.07369 71.8885 8.98096 72.2664 8.98096C72.7441 8.98096 73.1415 9.1289 73.4575 9.42584C73.8505 9.78946 74.047 10.3323 74.047 11.0533V13.9955Z" fill="white"/>
<path d="M77.1849 13.9956H76.0481V6.83057H77.1849V13.9956Z" fill="white"/>
<path d="M83.8841 11.4992C83.8841 12.2546 83.6593 12.8735 83.2098 13.359C82.7386 13.8581 82.1132 14.1071 81.3347 14.1071C80.5823 14.1071 79.984 13.8685 79.5388 13.3892C79.0937 12.911 78.8711 12.3077 78.8711 11.5805C78.8711 10.8199 79.1002 10.1958 79.5606 9.71137C80.0209 9.22689 80.6398 8.98413 81.4183 8.98413C82.1707 8.98413 82.7733 9.22272 83.2315 9.70095C83.6658 10.1656 83.8841 10.7658 83.8841 11.4992ZM82.7028 11.5347C82.7028 11.0814 82.6007 10.6928 82.3977 10.3688C82.1599 9.97705 81.8189 9.78117 81.3781 9.78117C80.9199 9.78117 80.5725 9.97705 80.3347 10.3688C80.1306 10.6928 80.0296 11.0877 80.0296 11.5545C80.0296 12.0077 80.1317 12.3963 80.3347 12.7203C80.5812 13.1121 80.9243 13.3079 81.3673 13.3079C81.8016 13.3079 82.1414 13.1089 82.3868 12.7099C82.5985 12.3796 82.7028 11.9879 82.7028 11.5347Z" fill="white"/>
<path d="M89.3911 13.9956H88.3693L88.2847 13.4298H88.2532C87.9036 13.881 87.4052 14.1071 86.7581 14.1071C86.2749 14.1071 85.884 13.9581 85.5898 13.6622C85.3227 13.3934 85.1891 13.0589 85.1891 12.662C85.1891 12.0619 85.4497 11.6045 85.9742 11.2877C86.4975 10.971 87.2336 10.8158 88.1815 10.8231V10.7314C88.1815 10.0844 87.8276 9.76138 87.1185 9.76138C86.6137 9.76138 86.1685 9.88328 85.7842 10.125L85.5529 9.40818C86.0284 9.12583 86.6158 8.98413 87.3086 8.98413C88.6462 8.98413 89.3172 9.66136 89.3172 11.0158V12.8245C89.3172 13.3152 89.3422 13.7059 89.3911 13.9956ZM88.2097 12.3077V11.5503C86.9546 11.5295 86.327 11.8597 86.327 12.5401C86.327 12.7964 86.3987 12.9881 86.5453 13.1162C86.6918 13.2444 86.8786 13.3079 87.1012 13.3079C87.3509 13.3079 87.5843 13.2319 87.7972 13.0808C88.011 12.9287 88.1424 12.736 88.1913 12.4994C88.2032 12.4463 88.2097 12.3817 88.2097 12.3077Z" fill="white"/>
<path d="M95.8568 13.9956H94.847L94.7938 13.2069H94.7623C94.4399 13.807 93.8905 14.1071 93.1185 14.1071C92.5018 14.1071 91.9882 13.8747 91.5811 13.4101C91.1739 12.9454 90.9709 12.3421 90.9709 11.6014C90.9709 10.8064 91.1913 10.1625 91.6343 9.67074C92.0631 9.21231 92.5886 8.9831 93.214 8.9831C93.9013 8.9831 94.3823 9.20502 94.6559 9.6499H94.6776V6.83057H95.8166V12.6724C95.8166 13.1506 95.8296 13.5914 95.8568 13.9956ZM94.6776 11.9243V11.1054C94.6776 10.9637 94.6668 10.8491 94.6462 10.7616C94.5821 10.499 94.4442 10.2782 94.2347 10.1C94.0229 9.92184 93.7678 9.83223 93.4735 9.83223C93.049 9.83223 92.7168 9.99373 92.4725 10.3178C92.2303 10.6418 92.1076 11.0554 92.1076 11.5607C92.1076 12.0462 92.2238 12.4401 92.4573 12.7433C92.7037 13.0662 93.036 13.2277 93.4518 13.2277C93.8253 13.2277 94.1239 13.0933 94.3508 12.8235C94.5702 12.5745 94.6776 12.2744 94.6776 11.9243Z" fill="white"/>
<path d="M105.589 11.4992C105.589 12.2546 105.364 12.8735 104.914 13.359C104.443 13.8581 103.82 14.1071 103.039 14.1071C102.289 14.1071 101.691 13.8685 101.243 13.3892C100.798 12.911 100.576 12.3077 100.576 11.5805C100.576 10.8199 100.805 10.1958 101.265 9.71137C101.725 9.22689 102.344 8.98413 103.125 8.98413C103.875 8.98413 104.48 9.22272 104.936 9.70095C105.37 10.1656 105.589 10.7658 105.589 11.4992ZM104.409 11.5347C104.409 11.0814 104.307 10.6928 104.104 10.3688C103.864 9.97705 103.526 9.78117 103.083 9.78117C102.627 9.78117 102.279 9.97705 102.039 10.3688C101.835 10.6928 101.734 11.0877 101.734 11.5545C101.734 12.0077 101.836 12.3963 102.039 12.7203C102.286 13.1121 102.629 13.3079 103.072 13.3079C103.506 13.3079 103.848 13.1089 104.093 12.7099C104.303 12.3796 104.409 11.9879 104.409 11.5347Z" fill="white"/>
<path d="M111.707 13.9955H110.57V11.1825C110.57 10.3156 110.227 9.88219 109.537 9.88219C109.2 9.88219 108.927 10.001 108.717 10.2396C108.506 10.4781 108.401 10.7595 108.401 11.0814V13.9945H107.262V10.4875C107.262 10.0562 107.249 9.58838 107.221 9.08202H108.22L108.274 9.84989H108.305C108.439 9.6113 108.636 9.41438 108.895 9.25706C109.204 9.07369 109.548 8.98096 109.927 8.98096C110.404 8.98096 110.801 9.1289 111.117 9.42584C111.511 9.78946 111.707 10.3323 111.707 11.0533V13.9955Z" fill="white"/>
<path d="M119.365 9.90213H118.112V12.288C118.112 12.8944 118.334 13.1976 118.775 13.1976C118.979 13.1976 119.149 13.1809 119.282 13.1466L119.312 13.9749C119.087 14.0561 118.791 14.0968 118.428 14.0968C117.978 14.0968 117.629 13.9655 117.376 13.7029C117.122 13.4404 116.996 12.9986 116.996 12.3787V9.90213H116.247V9.08426H116.996V8.18407L118.111 7.86108V9.08321H119.364V9.90213H119.365Z" fill="white"/>
<path d="M125.389 13.9956H124.25V11.2034C124.25 10.323 123.906 9.88224 123.219 9.88224C122.691 9.88224 122.331 10.1375 122.133 10.648C122.1 10.7553 122.08 10.8866 122.08 11.0408V13.9946H120.943V6.83057H122.08V9.79056H122.102C122.46 9.2519 122.974 8.9831 123.639 8.9831C124.111 8.9831 124.5 9.13105 124.81 9.42798C125.195 9.79785 125.389 10.348 125.389 11.0752V13.9956Z" fill="white"/>
<path d="M131.602 11.3076C131.602 11.5035 131.587 11.6681 131.56 11.8025H128.147C128.163 12.288 128.325 12.6579 128.641 12.9142C128.93 13.1434 129.303 13.258 129.759 13.258C130.264 13.258 130.724 13.1809 131.139 13.0257L131.317 13.7842C130.831 13.9863 130.26 14.0874 129.599 14.0874C128.806 14.0874 128.182 13.8634 127.73 13.4154C127.277 12.9674 127.052 12.3662 127.052 11.6119C127.052 10.8711 127.261 10.2543 127.684 9.76252C128.125 9.23741 128.721 8.97485 129.473 8.97485C130.209 8.97485 130.768 9.23741 131.146 9.76252C131.451 10.1793 131.602 10.695 131.602 11.3076ZM130.517 11.0253C130.525 10.7013 130.45 10.422 130.296 10.1866C130.099 9.88338 129.798 9.73126 129.391 9.73126C129.019 9.73126 128.716 9.87921 128.485 10.1761C128.296 10.4127 128.184 10.695 128.147 11.0253H130.517Z" fill="white"/>
<path d="M58.2459 32.8234H55.7801L54.4294 28.7507H49.7346L48.4479 32.8234H46.0473L50.6987 18.958H53.5717L58.2459 32.8234ZM54.0222 27.042L52.8008 23.4214C52.6716 23.0516 52.4294 22.1806 52.0722 20.8094H52.0288C51.8865 21.3991 51.6574 22.2702 51.3426 23.4214L50.1428 27.042H54.0222Z" fill="white"/>
<path d="M70.2078 27.7016C70.2078 29.402 69.7289 30.746 68.7713 31.7327C67.9135 32.611 66.8484 33.0496 65.577 33.0496C64.2046 33.0496 63.2187 32.5766 62.6183 31.6306H62.5748V36.8973H60.26V26.1169C60.26 25.048 60.2307 23.9508 60.1742 22.8256H62.21L62.3392 24.4103H62.3826C63.1546 23.2163 64.3262 22.6204 65.8983 22.6204C67.1274 22.6204 68.1535 23.0861 68.9743 24.0186C69.7973 24.9521 70.2078 26.1794 70.2078 27.7016ZM67.8495 27.7829C67.8495 26.8098 67.6215 26.0075 67.1633 25.3761C66.6627 24.7177 65.9906 24.3884 65.1481 24.3884C64.577 24.3884 64.058 24.5718 63.5944 24.9333C63.1296 25.298 62.8256 25.7741 62.6834 26.3639C62.6117 26.6389 62.5759 26.864 62.5759 27.0411V28.7081C62.5759 29.4353 62.8083 30.049 63.273 30.5501C63.7377 31.0513 64.3414 31.3013 65.084 31.3013C65.9559 31.3013 66.6345 30.9784 67.1198 30.3345C67.6063 29.6895 67.8495 28.8394 67.8495 27.7829Z" fill="white"/>
<path d="M82.1913 27.7016C82.1913 29.402 81.7125 30.746 80.7538 31.7327C79.8971 32.611 78.832 33.0496 77.5606 33.0496C76.1881 33.0496 75.2023 32.5766 74.6029 31.6306H74.5595V36.8973H72.2447V26.1169C72.2447 25.048 72.2153 23.9508 72.1589 22.8256H74.1947L74.3239 24.4103H74.3673C75.1382 23.2163 76.3098 22.6204 77.883 22.6204C79.111 22.6204 80.1371 23.0861 80.9601 24.0186C81.7798 24.9521 82.1913 26.1794 82.1913 27.7016ZM79.8331 27.7829C79.8331 26.8098 79.604 26.0075 79.1458 25.3761C78.6452 24.7177 77.9753 24.3884 77.1317 24.3884C76.5595 24.3884 76.0416 24.5718 75.5769 24.9333C75.1122 25.298 74.8092 25.7741 74.667 26.3639C74.5964 26.6389 74.5595 26.864 74.5595 27.0411V28.7081C74.5595 29.4353 74.7919 30.049 75.2544 30.5501C75.7191 31.0502 76.3228 31.3013 77.0676 31.3013C77.9395 31.3013 78.6181 30.9784 79.1034 30.3345C79.5899 29.6895 79.8331 28.8394 79.8331 27.7829Z" fill="white"/>
<path d="M95.5897 28.9351C95.5897 30.1145 95.163 31.0741 94.3063 31.8149C93.365 32.6244 92.0544 33.0287 90.3704 33.0287C88.8156 33.0287 87.5691 32.7411 86.6256 32.165L87.162 30.3135C88.1783 30.9033 89.2933 31.1991 90.5083 31.1991C91.3802 31.1991 92.0588 31.0095 92.5463 30.6324C93.0316 30.2552 93.2738 29.7488 93.2738 29.1175C93.2738 28.5548 93.074 28.0808 92.6733 27.6963C92.2748 27.3119 91.6093 26.9545 90.6799 26.6242C88.15 25.7188 86.8862 24.3925 86.8862 22.6484C86.8862 21.5086 87.3292 20.574 88.2163 19.8468C89.1001 19.1185 90.2792 18.7549 91.7537 18.7549C93.0685 18.7549 94.1608 18.9747 95.0327 19.4134L94.454 21.2241C93.6397 20.7991 92.7189 20.5865 91.6885 20.5865C90.8742 20.5865 90.238 20.7793 89.7819 21.1627C89.3965 21.5055 89.2032 21.9233 89.2032 22.4181C89.2032 22.9662 89.4236 23.4194 89.8666 23.7757C90.2521 24.105 90.9524 24.4613 91.9687 24.8457C93.2119 25.326 94.125 25.8876 94.7124 26.5315C95.2976 27.1733 95.5897 27.9766 95.5897 28.9351Z" fill="white"/>
<path d="M103.243 24.4926H100.692V29.3468C100.692 30.5814 101.141 31.1982 102.042 31.1982C102.456 31.1982 102.799 31.1638 103.071 31.0951L103.135 32.7819C102.679 32.9454 102.078 33.0277 101.334 33.0277C100.42 33.0277 99.7058 32.76 99.1901 32.2255C98.6765 31.69 98.4181 30.7919 98.4181 29.5301V24.4905H96.898V22.8235H98.4181V20.9929L100.692 20.3345V22.8235H103.243V24.4926Z" fill="white"/>
<path d="M114.756 27.7422C114.756 29.279 114.297 30.5407 113.383 31.5274C112.424 32.5432 111.152 33.0496 109.566 33.0496C108.037 33.0496 106.82 32.563 105.912 31.5899C105.004 30.6168 104.551 29.3884 104.551 27.9079C104.551 26.3586 105.017 25.0896 105.954 24.1029C106.889 23.1152 108.151 22.6213 109.737 22.6213C111.266 22.6213 112.496 23.1079 113.424 24.0821C114.313 25.027 114.756 26.2471 114.756 27.7422ZM112.354 27.8141C112.354 26.892 112.149 26.1012 111.733 25.4417C111.247 24.6436 110.554 24.2456 109.655 24.2456C108.724 24.2456 108.017 24.6447 107.532 25.4417C107.116 26.1023 106.911 26.9056 106.911 27.8558C106.911 28.7778 107.116 29.5686 107.532 30.2271C108.033 31.0252 108.732 31.4232 109.634 31.4232C110.518 31.4232 111.212 31.0168 111.712 30.2063C112.139 29.5342 112.354 28.7351 112.354 27.8141Z" fill="white"/>
<path d="M122.28 24.7791C122.051 24.7385 121.807 24.7177 121.55 24.7177C120.736 24.7177 120.106 25.0125 119.663 25.6033C119.278 26.1242 119.085 26.7827 119.085 27.5776V32.8235H116.771L116.792 25.9742C116.792 24.8219 116.763 23.7727 116.706 22.8267H118.722L118.807 24.7396H118.871C119.115 24.0821 119.5 23.5528 120.028 23.1559C120.544 22.7985 121.101 22.6204 121.701 22.6204C121.915 22.6204 122.108 22.6349 122.28 22.661V24.7791Z" fill="white"/>
<path d="M132.633 27.3515C132.633 27.7495 132.606 28.085 132.548 28.359H125.603C125.631 29.3467 125.966 30.1021 126.611 30.623C127.196 31.0887 127.953 31.3221 128.882 31.3221C129.911 31.3221 130.849 31.1648 131.692 30.8491L132.055 32.3911C131.069 32.8037 129.905 33.0089 128.562 33.0089C126.947 33.0089 125.678 32.5526 124.756 31.6409C123.835 30.7293 123.373 29.5051 123.373 27.9693C123.373 26.4617 123.802 25.2063 124.661 24.205C125.56 23.136 126.775 22.6016 128.304 22.6016C129.805 22.6016 130.942 23.136 131.714 24.205C132.325 25.0542 132.633 26.1044 132.633 27.3515ZM130.425 26.7753C130.441 26.1169 130.29 25.548 129.976 25.0677C129.575 24.4499 128.96 24.1415 128.131 24.1415C127.374 24.1415 126.759 24.4426 126.289 25.0469C125.903 25.5272 125.674 26.1033 125.603 26.7743H130.425V26.7753Z" fill="white"/>
</svg>
