<svg width="12" height="12" viewBox="0 0 12 12" fill="none" xmlns="http://www.w3.org/2000/svg">
<g clip-path="url(#clip0_15_3937)">
<rect width="12" height="12" rx="6" fill="white"/>
<path fill-rule="evenodd" clip-rule="evenodd" d="M3.19998 0H14.4V0.8H3.19998V0ZM3.19998 1.6H14.4V2.4H3.19998V1.6ZM3.19998 3.2H14.4V4H3.19998V3.2ZM3.19998 4.8H14.4V5.6H3.19998V4.8ZM-2.40002 6.4H14.4V7.2H-2.40002V6.4ZM-2.40002 8H14.4V8.8H-2.40002V8ZM-2.40002 9.6H14.4V10.4H-2.40002V9.6Z" fill="#F93939"/>
<path d="M14.4 11.2H-2.40002V12H14.4V11.2Z" fill="#F93939"/>
<path fill-rule="evenodd" clip-rule="evenodd" d="M0 0H5.6V5.6H0V0Z" fill="#1A47B8"/>
<path fill-rule="evenodd" clip-rule="evenodd" d="M2.75199 3.91744L1.54559 4.55184L1.77599 3.20784L0.799988 2.25824L2.14879 2.06224L2.75199 0.839844L3.35519 2.06144L4.70399 2.25744L3.72799 3.20944L3.95839 4.55184" fill="white"/>
</g>
<defs>
<clipPath id="clip0_15_3937">
<rect width="12" height="12" rx="6" fill="white"/>
</clipPath>
</defs>
</svg>
