<svg width="147" height="42" viewBox="0 0 147 42" fill="none" xmlns="http://www.w3.org/2000/svg">
<path d="M141.571 42H5.85052C2.86602 42 0.421692 39.6362 0.421692 36.75V5.25C0.421692 2.36381 2.86602 -2.86102e-06 5.85052 -2.86102e-06H141.571C144.556 -2.86102e-06 147 2.36381 147 5.25V36.75C147 39.6362 144.556 42 141.571 42Z" fill="black"/>
<path d="M141.571 0.841308C144.085 0.841308 146.13 2.81925 146.13 5.25V36.75C146.13 39.1807 144.085 41.1587 141.571 41.1587H5.85052C3.33697 41.1587 1.29166 39.1807 1.29166 36.75V5.25C1.29166 2.81925 3.33697 0.841308 5.85052 0.841308H141.571ZM141.571 -2.86102e-06H5.85052C2.86602 -2.86102e-06 0.421692 2.36381 0.421692 5.25V36.75C0.421692 39.6362 2.86602 42 5.85052 42H141.571C144.556 42 147 39.6362 147 36.75V5.25C147 2.36381 144.556 -2.86102e-06 141.571 -2.86102e-06Z" fill="#A6A6A6"/>
<path d="M10.9373 7.91564C10.6184 8.23852 10.4338 8.74121 10.4338 9.39221V32.613C10.4338 33.264 10.6184 33.7666 10.9373 34.0895L11.016 34.1604L24.4714 21.1535V20.8464L11.016 7.83952L10.9373 7.91564Z" fill="white"/>
<path d="M30.5801 25.4915L26.1 21.1536V20.8465L30.5856 16.5087L30.686 16.5651L35.9981 19.4881C37.5141 20.3176 37.5141 21.6826 35.9981 22.5173L30.686 25.435L30.5801 25.4915V25.4915Z" fill="white"/>
<path d="M29.8717 26.2427L25.2857 21.8078L11.7516 34.8973C12.2552 35.4092 13.0763 35.4709 14.01 34.959L29.8717 26.2427" fill="white"/>
<path d="M29.8717 15.7574L14.01 7.04113C13.0763 6.53451 12.2552 6.5962 11.7516 7.10807L25.2857 20.1924L29.8717 15.7574Z" fill="white"/>
<path d="M51.906 10.7559C51.906 11.6327 51.6345 12.3349 51.0998 12.8586C50.485 13.4794 49.6842 13.7917 48.703 13.7917C47.7651 13.7917 46.9644 13.4741 46.3075 12.8481C45.6492 12.2128 45.3208 11.4332 45.3208 10.5C45.3208 9.56681 45.6492 8.78719 46.3075 8.15719C46.9644 7.52588 47.7651 7.20825 48.703 7.20825C49.1698 7.20825 49.615 7.30144 50.0398 7.47469C50.4633 7.64925 50.808 7.8855 51.0577 8.17688L50.4904 8.73075C50.0547 8.23332 49.4616 7.98788 48.703 7.98788C48.0189 7.98788 47.4258 8.21888 46.9223 8.68481C46.4242 9.15206 46.1745 9.75713 46.1745 10.5C46.1745 11.2429 46.4242 11.8532 46.9223 12.3204C47.4258 12.7811 48.0189 13.0174 48.703 13.0174C49.4291 13.0174 50.0398 12.7811 50.5216 12.3152C50.8392 12.0067 51.0197 11.5815 51.0672 11.0381H48.703V10.2795H51.8571C51.8951 10.4436 51.906 10.6024 51.906 10.7559V10.7559Z" fill="white" stroke="white" stroke-width="0.16" stroke-miterlimit="10"/>
<path d="M56.91 8.1256H53.9472V10.1206H56.6182V10.8792H53.9472V12.8742H56.91V13.6473H53.1085V7.35254H56.91V8.1256Z" fill="white" stroke="white" stroke-width="0.16" stroke-miterlimit="10"/>
<path d="M60.4414 13.6473H59.6027V8.1256H57.7854V7.35254H62.2601V8.1256H60.4414V13.6473V13.6473Z" fill="white" stroke="white" stroke-width="0.16" stroke-miterlimit="10"/>
<path d="M65.4984 13.6473V7.35254H66.3358V13.6473H65.4984Z" fill="white" stroke="white" stroke-width="0.16" stroke-miterlimit="10"/>
<path d="M70.0477 13.6473H69.2157V8.1256H67.3917V7.35254H71.8718V8.1256H70.0477V13.6473Z" fill="white" stroke="white" stroke-width="0.16" stroke-miterlimit="10"/>
<path d="M80.3435 12.8376C79.7016 13.4741 78.9062 13.7917 77.9575 13.7917C77.0034 13.7917 76.2081 13.4741 75.5661 12.8376C74.9255 12.2023 74.6066 11.4227 74.6066 10.5C74.6066 9.57731 74.9255 8.79769 75.5661 8.16244C76.2081 7.52588 77.0034 7.20825 77.9575 7.20825C78.9008 7.20825 79.6961 7.52588 80.3381 8.16769C80.9841 8.80819 81.3031 9.58256 81.3031 10.5C81.3031 11.4227 80.9841 12.2023 80.3435 12.8376ZM76.1864 12.3099C76.6696 12.7811 77.2572 13.0174 77.9575 13.0174C78.6524 13.0174 79.2455 12.7811 79.7233 12.3099C80.2051 11.8388 80.4494 11.2337 80.4494 10.5C80.4494 9.76631 80.2051 9.16125 79.7233 8.69006C79.2455 8.21888 78.6524 7.98263 77.9575 7.98263C77.2572 7.98263 76.6696 8.21888 76.1864 8.69006C75.7046 9.16125 75.4603 9.76631 75.4603 10.5C75.4603 11.2337 75.7046 11.8388 76.1864 12.3099V12.3099Z" fill="white" stroke="white" stroke-width="0.16" stroke-miterlimit="10"/>
<path d="M82.4797 13.6473V7.35254H83.4976L86.6626 12.2482H86.6993L86.6626 11.038V7.35254H87.5V13.6473H86.626L83.3117 8.51016H83.2751L83.3117 9.72554V13.6473H82.4797V13.6473Z" fill="white" stroke="white" stroke-width="0.16" stroke-miterlimit="10"/>
<path d="M74.4003 22.8402C71.8501 22.8402 69.7668 24.7171 69.7668 27.3067C69.7668 29.8752 71.8501 31.7718 74.4003 31.7718C76.9559 31.7718 79.0392 29.8752 79.0392 27.3067C79.0392 24.7171 76.9559 22.8402 74.4003 22.8402ZM74.4003 30.0131C73.001 30.0131 71.7972 28.8961 71.7972 27.3067C71.7972 25.6962 73.001 24.599 74.4003 24.599C75.7996 24.599 77.0089 25.6962 77.0089 27.3067C77.0089 28.8961 75.7996 30.0131 74.4003 30.0131V30.0131ZM64.2905 22.8402C61.7349 22.8402 59.657 24.7171 59.657 27.3067C59.657 29.8752 61.7349 31.7718 64.2905 31.7718C66.8447 31.7718 68.924 29.8752 68.924 27.3067C68.924 24.7171 66.8447 22.8402 64.2905 22.8402ZM64.2905 30.0131C62.8898 30.0131 61.6819 28.8961 61.6819 27.3067C61.6819 25.6962 62.8898 24.599 64.2905 24.599C65.6898 24.599 66.8936 25.6962 66.8936 27.3067C66.8936 28.8961 65.6898 30.0131 64.2905 30.0131ZM52.2602 24.2092V26.1071H56.9466C56.8096 27.1676 56.4431 27.9472 55.8812 28.4906C55.1972 29.1468 54.1318 29.8752 52.2602 29.8752C49.3761 29.8752 47.1177 27.6243 47.1177 24.8352C47.1177 22.0462 49.3761 19.7952 52.2602 19.7952C53.8196 19.7952 54.9543 20.3846 55.7917 21.1484L57.1746 19.811C56.0034 18.7295 54.4453 17.8987 52.2602 17.8987C48.3053 17.8987 44.9815 21.0106 44.9815 24.8352C44.9815 28.6599 48.3053 31.7718 52.2602 31.7718C54.3978 31.7718 56.0034 31.0946 57.2656 29.8241C58.559 28.5732 58.9621 26.8145 58.9621 25.3944C58.9621 24.9534 58.9241 24.5478 58.8562 24.2092H52.2602ZM101.453 25.6805C101.072 24.6817 99.8954 22.8402 97.4986 22.8402C95.1235 22.8402 93.146 24.6502 93.146 27.3067C93.146 29.8083 95.1031 31.7718 97.7266 31.7718C99.8479 31.7718 101.072 30.521 101.576 29.7926L100.001 28.778C99.476 29.5209 98.7608 30.0131 97.7266 30.0131C96.6992 30.0131 95.9622 29.5576 95.4899 28.6599L101.667 26.1884L101.453 25.6805V25.6805ZM95.1561 27.1676C95.1031 25.4456 96.5391 24.5636 97.5678 24.5636C98.374 24.5636 99.058 24.9534 99.286 25.5112L95.1561 27.1676V27.1676ZM90.1357 31.5001H92.1661V18.3751H90.1357V31.5001ZM86.8106 23.8351H86.7427C86.2867 23.3127 85.4168 22.8402 84.3147 22.8402C82.002 22.8402 79.8875 24.8037 79.8875 27.3211C79.8875 29.8241 82.002 31.7718 84.3147 31.7718C85.4168 31.7718 86.2867 31.2954 86.7427 30.7572H86.8106V31.3977C86.8106 33.1053 85.8673 34.0227 84.3459 34.0227C83.1054 34.0227 82.3359 33.1565 82.0183 32.4281L80.2526 33.1407C80.7615 34.3246 82.1092 35.7815 84.3459 35.7815C86.7264 35.7815 88.7351 34.427 88.7351 31.1313V23.1119H86.8106V23.8351V23.8351ZM84.4884 30.0131C83.0891 30.0131 81.9179 28.8804 81.9179 27.3211C81.9179 25.7474 83.0891 24.599 84.4884 24.599C85.8673 24.599 86.9545 25.7474 86.9545 27.3211C86.9545 28.8804 85.8673 30.0131 84.4884 30.0131V30.0131ZM110.959 18.3751H106.103V31.5001H108.128V26.5271H110.959C113.208 26.5271 115.414 24.9534 115.414 22.4504C115.414 19.9488 113.203 18.3751 110.959 18.3751V18.3751ZM111.012 24.7014H108.128V20.2008H111.012C112.524 20.2008 113.387 21.4149 113.387 22.4504C113.387 23.4663 112.524 24.7014 111.012 24.7014ZM123.53 22.8153C122.067 22.8153 120.545 23.4401 119.92 24.8247L121.717 25.5532C122.103 24.8247 122.815 24.5885 123.566 24.5885C124.617 24.5885 125.682 25.1988 125.699 26.2764V26.4142C125.332 26.2094 124.548 25.9062 123.583 25.9062C121.647 25.9062 119.675 26.9366 119.675 28.8594C119.675 30.6181 121.261 31.7508 123.043 31.7508C124.405 31.7508 125.157 31.1562 125.629 30.4646H125.699V31.4791H127.654V26.4444C127.654 24.1173 125.857 22.8153 123.53 22.8153ZM123.286 30.0078C122.623 30.0078 121.7 29.6902 121.7 28.8961C121.7 27.8802 122.851 27.4904 123.847 27.4904C124.739 27.4904 125.157 27.6807 125.699 27.9314C125.54 29.1468 124.458 30.0078 123.286 30.0078V30.0078ZM134.78 23.1027L132.452 28.7924H132.383L129.977 23.1027H127.793L131.408 31.0539L129.345 35.4783H131.461L137.033 23.1027H134.78V23.1027ZM116.527 31.5001H118.557V18.3751H116.527V31.5001Z" fill="white"/>
</svg>
