<svg width="14" height="14" viewBox="0 0 14 14" fill="none" xmlns="http://www.w3.org/2000/svg">
<path d="M6.99997 8.90909C8.05433 8.90909 8.90906 8.05436 8.90906 7C8.90906 5.94564 8.05433 5.09091 6.99997 5.09091C5.94561 5.09091 5.09088 5.94564 5.09088 7C5.09088 8.05436 5.94561 8.90909 6.99997 8.90909Z" fill="white"/>
<path d="M11.7091 8.90909C11.6244 9.10103 11.5991 9.31394 11.6365 9.52037C11.674 9.72681 11.7724 9.91729 11.9191 10.0673L11.9573 10.1055C12.0756 10.2237 12.1695 10.364 12.2335 10.5185C12.2976 10.673 12.3305 10.8387 12.3305 11.0059C12.3305 11.1732 12.2976 11.3388 12.2335 11.4933C12.1695 11.6478 12.0756 11.7882 11.9573 11.9064C11.8391 12.0247 11.6987 12.1186 11.5442 12.1826C11.3897 12.2467 11.2241 12.2796 11.0568 12.2796C10.8896 12.2796 10.7239 12.2467 10.5694 12.1826C10.4149 12.1186 10.2746 12.0247 10.1564 11.9064L10.1182 11.8682C9.9682 11.7215 9.77772 11.6231 9.57128 11.5856C9.36485 11.5482 9.15194 11.5735 8.96 11.6582C8.77178 11.7388 8.61126 11.8728 8.4982 12.0435C8.38513 12.2143 8.32445 12.4143 8.32364 12.6191V12.7273C8.32364 13.0648 8.18955 13.3885 7.95086 13.6272C7.71218 13.8659 7.38846 14 7.05091 14C6.71336 14 6.38964 13.8659 6.15096 13.6272C5.91227 13.3885 5.77818 13.0648 5.77818 12.7273V12.67C5.77325 12.4594 5.70508 12.2551 5.58251 12.0837C5.45994 11.9123 5.28865 11.7818 5.09091 11.7091C4.89897 11.6244 4.68606 11.5991 4.47963 11.6365C4.27319 11.674 4.0827 11.7724 3.93273 11.9191L3.89455 11.9573C3.77634 12.0756 3.63598 12.1695 3.48147 12.2335C3.32696 12.2976 3.16135 12.3305 2.99409 12.3305C2.82683 12.3305 2.66122 12.2976 2.50671 12.2335C2.35221 12.1695 2.21184 12.0756 2.09364 11.9573C1.9753 11.8391 1.88143 11.6987 1.81738 11.5442C1.75333 11.3897 1.72036 11.2241 1.72036 11.0568C1.72036 10.8896 1.75333 10.7239 1.81738 10.5694C1.88143 10.4149 1.9753 10.2746 2.09364 10.1564L2.13182 10.1182C2.27852 9.9682 2.37694 9.77772 2.41437 9.57128C2.4518 9.36485 2.42653 9.15194 2.34182 8.96C2.26115 8.77178 2.12721 8.61126 1.95648 8.4982C1.78575 8.38513 1.58568 8.32445 1.38091 8.32364H1.27273C0.935179 8.32364 0.611456 8.18955 0.372773 7.95086C0.134091 7.71218 0 7.38846 0 7.05091C0 6.71336 0.134091 6.38964 0.372773 6.15096C0.611456 5.91227 0.935179 5.77818 1.27273 5.77818H1.33C1.54063 5.77325 1.74491 5.70508 1.91628 5.58251C2.08765 5.45994 2.21818 5.28865 2.29091 5.09091C2.37562 4.89897 2.40089 4.68606 2.36346 4.47963C2.32603 4.27319 2.22761 4.0827 2.08091 3.93273L2.04273 3.89455C1.92439 3.77634 1.83052 3.63598 1.76647 3.48147C1.70242 3.32696 1.66945 3.16135 1.66945 2.99409C1.66945 2.82683 1.70242 2.66122 1.76647 2.50671C1.83052 2.35221 1.92439 2.21184 2.04273 2.09364C2.16093 1.9753 2.3013 1.88143 2.4558 1.81738C2.61031 1.75333 2.77593 1.72036 2.94318 1.72036C3.11044 1.72036 3.27605 1.75333 3.43056 1.81738C3.58507 1.88143 3.72543 1.9753 3.84364 2.09364L3.88182 2.13182C4.0318 2.27852 4.22228 2.37694 4.42872 2.41437C4.63515 2.4518 4.84806 2.42653 5.04 2.34182H5.09091C5.27913 2.26115 5.43965 2.12721 5.55271 1.95648C5.66578 1.78575 5.72646 1.58568 5.72727 1.38091V1.27273C5.72727 0.935179 5.86136 0.611456 6.10005 0.372773C6.33873 0.134091 6.66245 0 7 0C7.33755 0 7.66127 0.134091 7.89995 0.372773C8.13864 0.611456 8.27273 0.935179 8.27273 1.27273V1.33C8.27354 1.53477 8.33422 1.73484 8.44729 1.90557C8.56035 2.0763 8.72087 2.21024 8.90909 2.29091C9.10103 2.37562 9.31394 2.40089 9.52037 2.36346C9.72681 2.32603 9.91729 2.22761 10.0673 2.08091L10.1055 2.04273C10.2237 1.92439 10.364 1.83052 10.5185 1.76647C10.673 1.70242 10.8387 1.66945 11.0059 1.66945C11.1732 1.66945 11.3388 1.70242 11.4933 1.76647C11.6478 1.83052 11.7882 1.92439 11.9064 2.04273C12.0247 2.16093 12.1186 2.3013 12.1826 2.4558C12.2467 2.61031 12.2796 2.77593 12.2796 2.94318C12.2796 3.11044 12.2467 3.27605 12.1826 3.43056C12.1186 3.58507 12.0247 3.72543 11.9064 3.84364L11.8682 3.88182C11.7215 4.0318 11.6231 4.22228 11.5856 4.42872C11.5482 4.63515 11.5735 4.84806 11.6582 5.04V5.09091C11.7388 5.27913 11.8728 5.43965 12.0435 5.55271C12.2143 5.66578 12.4143 5.72646 12.6191 5.72727H12.7273C13.0648 5.72727 13.3885 5.86136 13.6272 6.10005C13.8659 6.33873 14 6.66245 14 7C14 7.33755 13.8659 7.66127 13.6272 7.89995C13.3885 8.13864 13.0648 8.27273 12.7273 8.27273H12.67C12.4652 8.27354 12.2652 8.33422 12.0944 8.44729C11.9237 8.56035 11.7898 8.72087 11.7091 8.90909V8.90909Z" fill="white"/>
</svg>
